Coordinates
version=1
nRows=13
nColumns=30
inDegrees=yes

Units are S.I. units (second, meters, Newtons, ...)
Angles are in degrees.

endheader
time	floatyaw	floatroll	floatpitch	floatx	floaty	floatz	pro_sup_l	deviation_l	flexion_l	cmc_flexion_l	cmc_abduction_l	mp_flexion_l	ip_flexion_l	2mcp_flexion_l	2mcp_abduction_l	2pm_flexion_l	2md_flexion_l	3mcp_flexion_l	3mcp_abduction_l	3pm_flexion_l	3md_flexion_l	4mcp_flexion_l	4mcp_abduction_l	4pm_flexion_l	4md_flexion_l	5mcp_flexion_l	5mcp_abduction_l	5pm_flexion_l	5md_flexion_l
-0.995000	-160.147433	-5.066637	-73.570646	0.080355	-0.182051	-0.016334	100.819251	5.033029	-0.505944	13.442595	12.878667	-26.058627	-42.324484	29.368311	6.887931	43.992779	29.997333	24.725176	4.197688	45.244863	29.855725	13.611195	-4.190873	52.556967	36.193094	1.306666	-8.492237	61.855779	43.421558
-0.985000	-160.147433	-5.066637	-73.570646	0.080357	-0.182044	-0.016335	100.824271	5.034244	-0.502507	13.426140	12.874921	-26.051266	-42.278149	29.375321	6.894306	44.026128	30.019488	24.731078	4.200198	45.226718	29.846981	13.612675	-4.191513	52.557330	36.196637	1.317361	-8.503312	61.858367	43.423868
-0.975000	-160.147433	-5.066637	-73.570646	0.080355	-0.182043	-0.016336	100.825862	5.035637	-0.501977	13.410267	12.868340	-26.051375	-42.239463	29.369696	6.902973	44.084733	30.058645	24.737958	4.201884	45.211533	29.842706	13.609288	-4.191901	52.564415	36.203251	1.321620	-8.514721	61.866208	43.427534
-0.965000	-160.147433	-5.066637	-73.570646	0.080349	-0.182049	-0.016336	100.822233	5.036288	-0.503754	13.398038	12.864016	-26.062451	-42.221412	29.355702	6.913115	44.156151	30.105848	24.745149	4.203059	45.201678	29.842278	13.602418	-4.192295	52.577922	36.211822	1.319573	-8.524841	61.878425	43.430104
-0.955000	-160.147433	-5.066637	-73.570646	0.080341	-0.182059	-0.016334	100.813162	5.035763	-0.506518	13.390980	12.865766	-26.083311	-42.228689	29.341052	6.923105	44.223718	30.149214	24.752517	4.204315	45.196595	29.843280	13.593920	-4.192813	52.595720	36.220670	1.313121	-8.531677	61.892397	43.429742
-0.945000	-160.147433	-5.066637	-73.570646	0.080334	-0.182069	-0.016330	100.800554	5.034599	-0.508174	13.387832	12.874798	-26.107735	-42.255555	29.333537	6.930991	44.272363	30.178397	24.759283	4.206121	45.194389	29.843423	13.584870	-4.193318	52.614633	36.228248	1.304512	-8.533766	61.905282	43.426293
-0.935000	-160.147433	-5.066637	-73.570646	0.080330	-0.182074	-0.016322	100.788033	5.034238	-0.506083	13.385034	12.889994	-26.127083	-42.289200	29.338219	6.935198	44.292822	30.187596	24.763707	4.208470	45.193206	29.841710	13.575197	-4.193462	52.631266	36.233581	1.295195	-8.530804	61.915002	43.421232
-0.925000	-160.147433	-5.066637	-73.570646	0.080331	-0.182072	-0.016311	100.779385	5.036244	-0.497881	13.378605	12.909392	-26.134490	-42.316611	29.356462	6.935104	44.282936	30.176094	24.763982	4.210772	45.191952	29.838492	13.564295	-4.192869	52.642701	36.236314	1.285747	-8.523724	61.920460	43.416652
-0.915000	-160.147433	-5.066637	-73.570646	0.080336	-0.182059	-0.016299	100.776674	5.041316	-0.482677	13.366014	12.931248	-26.128007	-42.330414	29.386472	6.931299	44.246555	30.147074	24.759422	4.212102	45.190536	29.834972	13.551937	-4.191397	52.647176	36.236593	1.276598	-8.514323	61.921239	43.414020
-0.905000	-160.147433	-5.066637	-73.570646	0.080344	-0.182038	-0.016287	100.779391	5.048870	-0.462021	13.346909	12.953706	-26.110864	-42.330233	29.424249	6.925455	44.191572	30.106177	24.750828	4.211668	45.189933	29.832787	13.538689	-4.189303	52.644687	36.234983	1.268661	-8.504750	61.917276	43.413452
-0.895000	-160.147433	-5.066637	-73.570646	0.080351	-0.182013	-0.016278	100.785190	5.057500	-0.439856	13.322611	12.973988	-26.089131	-42.319873	29.464337	6.919905	44.128244	30.060550	24.739748	4.209269	45.192118	29.833780	13.525651	-4.187175	52.637189	36.232401	1.263295	-8.497090	61.908840	43.413831
-0.885000	-160.147433	-5.066637	-73.570646	0.080356	-0.181991	-0.016273	100.791427	5.065825	-0.421137	13.295014	12.988819	-26.068554	-42.303443	29.500617	6.916957	44.067808	30.018050	24.727353	4.205508	45.199583	29.839651	13.513887	-4.185680	52.628016	36.229938	1.261683	-8.492997	61.896755	43.413558
-0.875000	-160.147433	-5.066637	-73.570646	0.080358	-0.181976	-0.016272	100.796208	5.072998	-0.409632	13.265655	12.996370	-26.052328	-42.283177	29.527590	6.918109	44.020626	29.985870	24.713899	4.201588	45.214310	29.851287	13.504025	-4.185248	52.620623	36.228526	1.264063	-8.493242	61.882527	43.411435
